<?xml version="1.0" encoding="UTF-8" standalone="no"?><svg xmlns="http://www.w3.org/2000/svg" xmlns:xlink="http://www.w3.org/1999/xlink" contentStyleType="text/css" height="415px" preserveAspectRatio="none" style="width:651px;height:415px;background:#FFFFFF;" version="1.1" viewBox="0 0 651 415" width="651px" zoomAndPan="magnify"><defs/><g><!--MD5=[99b9cb8ae34f2016a51723d77832ec17]
cluster customer domain--><g id="cluster_customer domain"><path d="M8.5,6 L146.5,6 A3.75,3.75 0 0 1 149,8.5 L156,28.2969 L641.5,28.2969 A2.5,2.5 0 0 1 644,30.7969 L644,405.5 A2.5,2.5 0 0 1 641.5,408 L8.5,408 A2.5,2.5 0 0 1 6,405.5 L6,8.5 A2.5,2.5 0 0 1 8.5,6 " fill="#DDDDDD" style="stroke:#000000;stroke-width:1.5;"/><line style="stroke:#000000;stroke-width:1.5;" x1="6" x2="156" y1="28.2969" y2="28.2969"/><text fill="#000000" font-family="sans-serif" font-size="14" font-weight="bold" lengthAdjust="spacing" textLength="137" x="10" y="20.9951">customer domain</text></g><!--MD5=[72ce1314beffbcf60a64ee91fbbc10dc]
class Contact--><g id="elem_Contact"><rect codeLine="2" fill="#F1F1F1" height="80.5938" id="Contact" rx="2.5" ry="2.5" style="stroke:#181818;stroke-width:0.5;" width="86" x="22" y="287"/><ellipse cx="37" cy="303" fill="#ADD1B2" rx="11" ry="11" style="stroke:#181818;stroke-width:1.0;"/><path d="M39.9688,308.6406 Q39.3906,308.9375 38.75,309.0859 Q38.1094,309.2344 37.4063,309.2344 Q34.9063,309.2344 33.5859,307.5859 Q32.2656,305.9375 32.2656,302.8125 Q32.2656,299.6875 33.5859,298.0313 Q34.9063,296.375 37.4063,296.375 Q38.1094,296.375 38.7578,296.5313 Q39.4063,296.6875 39.9688,296.9844 L39.9688,299.7031 Q39.3438,299.125 38.75,298.8516 Q38.1563,298.5781 37.5313,298.5781 Q36.1875,298.5781 35.5,299.6484 Q34.8125,300.7188 34.8125,302.8125 Q34.8125,304.9063 35.5,305.9766 Q36.1875,307.0469 37.5313,307.0469 Q38.1563,307.0469 38.75,306.7734 Q39.3438,306.5 39.9688,305.9219 L39.9688,308.6406 Z " fill="#000000"/><text fill="#000000" font-family="sans-serif" font-size="14" lengthAdjust="spacing" textLength="54" x="51" y="307.8467">Contact</text><line style="stroke:#181818;stroke-width:0.5;" x1="23" x2="107" y1="319" y2="319"/><ellipse cx="33" cy="330" fill="none" rx="3" ry="3" style="stroke:#038048;stroke-width:1.0;"/><text fill="#000000" font-family="sans-serif" font-size="14" lengthAdjust="spacing" textLength="36" x="42" y="335.9951">email</text><ellipse cx="33" cy="346.2969" fill="none" rx="3" ry="3" style="stroke:#038048;stroke-width:1.0;"/><text fill="#000000" font-family="sans-serif" font-size="14" lengthAdjust="spacing" textLength="45" x="42" y="352.292">phone</text><line style="stroke:#181818;stroke-width:0.5;" x1="23" x2="107" y1="359.5938" y2="359.5938"/></g><!--MD5=[0f39e4cb6f03951afbf6d14bd2505654]
class Address--><g id="elem_Address"><rect codeLine="7" fill="#F1F1F1" height="162.0781" id="Address" rx="2.5" ry="2.5" style="stroke:#181818;stroke-width:0.5;" width="111" x="265.5" y="41"/><ellipse cx="290.4" cy="57" fill="#ADD1B2" rx="11" ry="11" style="stroke:#181818;stroke-width:1.0;"/><path d="M293.3688,62.6406 Q292.7906,62.9375 292.15,63.0859 Q291.5094,63.2344 290.8063,63.2344 Q288.3063,63.2344 286.9859,61.5859 Q285.6656,59.9375 285.6656,56.8125 Q285.6656,53.6875 286.9859,52.0313 Q288.3063,50.375 290.8063,50.375 Q291.5094,50.375 292.1578,50.5313 Q292.8063,50.6875 293.3688,50.9844 L293.3688,53.7031 Q292.7438,53.125 292.15,52.8516 Q291.5563,52.5781 290.9313,52.5781 Q289.5875,52.5781 288.9,53.6484 Q288.2125,54.7188 288.2125,56.8125 Q288.2125,58.9063 288.9,59.9766 Q289.5875,61.0469 290.9313,61.0469 Q291.5563,61.0469 292.15,60.7734 Q292.7438,60.5 293.3688,59.9219 L293.3688,62.6406 Z " fill="#000000"/><text fill="#000000" font-family="sans-serif" font-size="14" lengthAdjust="spacing" textLength="57" x="306.6" y="61.8467">Address</text><line style="stroke:#181818;stroke-width:0.5;" x1="266.5" x2="375.5" y1="73" y2="73"/><ellipse cx="276.5" cy="84" fill="none" rx="3" ry="3" style="stroke:#038048;stroke-width:1.0;"/><text fill="#000000" font-family="sans-serif" font-size="14" lengthAdjust="spacing" textLength="65" x="285.5" y="89.9951">address1</text><ellipse cx="276.5" cy="100.2969" fill="none" rx="3" ry="3" style="stroke:#038048;stroke-width:1.0;"/><text fill="#000000" font-family="sans-serif" font-size="14" lengthAdjust="spacing" textLength="65" x="285.5" y="106.292">address2</text><ellipse cx="276.5" cy="116.5938" fill="none" rx="3" ry="3" style="stroke:#038048;stroke-width:1.0;"/><text fill="#000000" font-family="sans-serif" font-size="14" lengthAdjust="spacing" textLength="23" x="285.5" y="122.5889">city</text><ellipse cx="276.5" cy="132.8906" fill="none" rx="3" ry="3" style="stroke:#038048;stroke-width:1.0;"/><text fill="#000000" font-family="sans-serif" font-size="14" lengthAdjust="spacing" textLength="44" x="285.5" y="138.8857">region</text><ellipse cx="276.5" cy="149.1875" fill="none" rx="3" ry="3" style="stroke:#038048;stroke-width:1.0;"/><text fill="#000000" font-family="sans-serif" font-size="14" lengthAdjust="spacing" textLength="52" x="285.5" y="155.1826">country</text><ellipse cx="276.5" cy="165.4844" fill="none" rx="3" ry="3" style="stroke:#038048;stroke-width:1.0;"/><text fill="#000000" font-family="sans-serif" font-size="14" lengthAdjust="spacing" textLength="79" x="285.5" y="171.4795">postalCode</text><ellipse cx="276.5" cy="181.7813" fill="none" rx="3" ry="3" style="stroke:#038048;stroke-width:1.0;"/><text fill="#000000" font-family="sans-serif" font-size="14" lengthAdjust="spacing" textLength="85" x="285.5" y="187.7764">organization</text><line style="stroke:#181818;stroke-width:0.5;" x1="266.5" x2="375.5" y1="195.0781" y2="195.0781"/></g><g id="elem_GMN5"><path d="M412,102 L412,118 L376.58,122 L412,126 L412,142.2656 A0,0 0 0 0 412,142.2656 L628,142.2656 A0,0 0 0 0 628,142.2656 L628,112 L618,102 L412,102 A0,0 0 0 0 412,102 " fill="#FEFFDD" style="stroke:#181818;stroke-width:0.5;"/><path d="M618,102 L618,112 L628,112 L618,102 " fill="#FEFFDD" style="stroke:#181818;stroke-width:0.5;"/><text fill="#000000" font-family="sans-serif" font-size="13" lengthAdjust="spacing" textLength="142" x="418" y="119.0669">There are two types of</text><text fill="#000000" font-family="sans-serif" font-size="13" lengthAdjust="spacing" textLength="195" x="418" y="134.1997">addresses: billing and shipping</text></g><!--MD5=[2ce0c9fb7f55b1e256ab28a8ea6b25ec]
class Customer--><g id="elem_Customer"><rect codeLine="22" fill="#F1F1F1" height="48" id="Customer" rx="2.5" ry="2.5" style="stroke:#181818;stroke-width:0.5;" width="100" x="130" y="98"/><ellipse cx="145" cy="114" fill="#ADD1B2" rx="11" ry="11" style="stroke:#181818;stroke-width:1.0;"/><path d="M147.9688,119.6406 Q147.3906,119.9375 146.75,120.0859 Q146.1094,120.2344 145.4063,120.2344 Q142.9063,120.2344 141.5859,118.5859 Q140.2656,116.9375 140.2656,113.8125 Q140.2656,110.6875 141.5859,109.0313 Q142.9063,107.375 145.4063,107.375 Q146.1094,107.375 146.7578,107.5313 Q147.4063,107.6875 147.9688,107.9844 L147.9688,110.7031 Q147.3438,110.125 146.75,109.8516 Q146.1563,109.5781 145.5313,109.5781 Q144.1875,109.5781 143.5,110.6484 Q142.8125,111.7188 142.8125,113.8125 Q142.8125,115.9063 143.5,116.9766 Q144.1875,118.0469 145.5313,118.0469 Q146.1563,118.0469 146.75,117.7734 Q147.3438,117.5 147.9688,116.9219 L147.9688,119.6406 Z " fill="#000000"/><text fill="#000000" font-family="sans-serif" font-size="14" lengthAdjust="spacing" textLength="68" x="159" y="118.8467">Customer</text><line style="stroke:#181818;stroke-width:0.5;" x1="131" x2="229" y1="130" y2="130"/><line style="stroke:#181818;stroke-width:0.5;" x1="131" x2="229" y1="138" y2="138"/></g><!--MD5=[b2242bc46093bbf21213bfc9fe1a0f1d]
class ShippingAddress--><g id="elem_ShippingAddress"><rect codeLine="30" fill="#F1F1F1" height="56.2656" id="ShippingAddress" rx="2.5" ry="2.5" style="stroke:#181818;stroke-width:0.5;" width="149" x="143.5" y="299.5"/><ellipse cx="158.5" cy="319.6328" fill="#ADD1B2" rx="11" ry="11" style="stroke:#181818;stroke-width:1.0;"/><path d="M161.4688,325.2734 Q160.8906,325.5703 160.25,325.7188 Q159.6094,325.8672 158.9063,325.8672 Q156.4063,325.8672 155.0859,324.2188 Q153.7656,322.5703 153.7656,319.4453 Q153.7656,316.3203 155.0859,314.6641 Q156.4063,313.0078 158.9063,313.0078 Q159.6094,313.0078 160.2578,313.1641 Q160.9063,313.3203 161.4688,313.6172 L161.4688,316.3359 Q160.8438,315.7578 160.25,315.4844 Q159.6563,315.2109 159.0313,315.2109 Q157.6875,315.2109 157,316.2813 Q156.3125,317.3516 156.3125,319.4453 Q156.3125,321.5391 157,322.6094 Q157.6875,323.6797 159.0313,323.6797 Q159.6563,323.6797 160.25,323.4063 Q160.8438,323.1328 161.4688,322.5547 L161.4688,325.2734 Z " fill="#000000"/><text fill="#000000" font-family="sans-serif" font-size="12" font-style="italic" lengthAdjust="spacing" textLength="65" x="198.5" y="315.6387">«Address»</text><text fill="#000000" font-family="sans-serif" font-size="14" lengthAdjust="spacing" textLength="117" x="172.5" y="331.4639">ShippingAddress</text><line style="stroke:#181818;stroke-width:0.5;" x1="144.5" x2="291.5" y1="339.7656" y2="339.7656"/><line style="stroke:#181818;stroke-width:0.5;" x1="144.5" x2="291.5" y1="347.7656" y2="347.7656"/></g><!--MD5=[9a51335c5b13b040816549c83a39a144]
class BillingAddress--><g id="elem_BillingAddress"><rect codeLine="31" fill="#F1F1F1" height="56.2656" id="BillingAddress" rx="2.5" ry="2.5" style="stroke:#181818;stroke-width:0.5;" width="129" x="327.5" y="299.5"/><ellipse cx="342.5" cy="319.6328" fill="#ADD1B2" rx="11" ry="11" style="stroke:#181818;stroke-width:1.0;"/><path d="M345.4688,325.2734 Q344.8906,325.5703 344.25,325.7188 Q343.6094,325.8672 342.9063,325.8672 Q340.4063,325.8672 339.0859,324.2188 Q337.7656,322.5703 337.7656,319.4453 Q337.7656,316.3203 339.0859,314.6641 Q340.4063,313.0078 342.9063,313.0078 Q343.6094,313.0078 344.2578,313.1641 Q344.9063,313.3203 345.4688,313.6172 L345.4688,316.3359 Q344.8438,315.7578 344.25,315.4844 Q343.6563,315.2109 343.0313,315.2109 Q341.6875,315.2109 341,316.2813 Q340.3125,317.3516 340.3125,319.4453 Q340.3125,321.5391 341,322.6094 Q341.6875,323.6797 343.0313,323.6797 Q343.6563,323.6797 344.25,323.4063 Q344.8438,323.1328 345.4688,322.5547 L345.4688,325.2734 Z " fill="#000000"/><text fill="#000000" font-family="sans-serif" font-size="12" font-style="italic" lengthAdjust="spacing" textLength="65" x="372.5" y="315.6387">«Address»</text><text fill="#000000" font-family="sans-serif" font-size="14" lengthAdjust="spacing" textLength="97" x="356.5" y="331.4639">BillingAddress</text><line style="stroke:#181818;stroke-width:0.5;" x1="328.5" x2="455.5" y1="339.7656" y2="339.7656"/><line style="stroke:#181818;stroke-width:0.5;" x1="328.5" x2="455.5" y1="347.7656" y2="347.7656"/></g><!--MD5=[9ca6ecb058a3a1bbca21c4d5c75cc179]
class SalesOrder--><g id="elem_SalesOrder"><rect codeLine="32" fill="#F1F1F1" height="129.4844" id="SalesOrder" rx="2.5" ry="2.5" style="stroke:#181818;stroke-width:0.5;" width="136" x="492" y="263"/><ellipse cx="519.6" cy="279" fill="#ADD1B2" rx="11" ry="11" style="stroke:#181818;stroke-width:1.0;"/><path d="M522.5688,284.6406 Q521.9906,284.9375 521.35,285.0859 Q520.7094,285.2344 520.0063,285.2344 Q517.5063,285.2344 516.1859,283.5859 Q514.8656,281.9375 514.8656,278.8125 Q514.8656,275.6875 516.1859,274.0313 Q517.5063,272.375 520.0063,272.375 Q520.7094,272.375 521.3578,272.5313 Q522.0063,272.6875 522.5688,272.9844 L522.5688,275.7031 Q521.9438,275.125 521.35,274.8516 Q520.7563,274.5781 520.1313,274.5781 Q518.7875,274.5781 518.1,275.6484 Q517.4125,276.7188 517.4125,278.8125 Q517.4125,280.9063 518.1,281.9766 Q518.7875,283.0469 520.1313,283.0469 Q520.7563,283.0469 521.35,282.7734 Q521.9438,282.5 522.5688,281.9219 L522.5688,284.6406 Z " fill="#000000"/><text fill="#000000" font-family="sans-serif" font-size="14" lengthAdjust="spacing" textLength="76" x="536.4" y="283.8467">SalesOrder</text><line style="stroke:#181818;stroke-width:0.5;" x1="493" x2="627" y1="295" y2="295"/><ellipse cx="503" cy="306" fill="none" rx="3" ry="3" style="stroke:#038048;stroke-width:1.0;"/><text fill="#000000" font-family="sans-serif" font-size="14" lengthAdjust="spacing" textLength="109" x="512" y="311.9951">itemDescription</text><ellipse cx="503" cy="322.2969" fill="none" rx="3" ry="3" style="stroke:#038048;stroke-width:1.0;"/><text fill="#000000" font-family="sans-serif" font-size="14" lengthAdjust="spacing" textLength="64" x="512" y="328.292">itemPrice</text><ellipse cx="503" cy="338.5938" fill="none" rx="3" ry="3" style="stroke:#038048;stroke-width:1.0;"/><text fill="#000000" font-family="sans-serif" font-size="14" lengthAdjust="spacing" textLength="91" x="512" y="344.5889">shippingCost</text><ellipse cx="503" cy="354.8906" fill="none" rx="3" ry="3" style="stroke:#038048;stroke-width:1.0;"/><text fill="#000000" font-family="sans-serif" font-size="14" lengthAdjust="spacing" textLength="110" x="512" y="360.8857">trackingNumber</text><ellipse cx="503" cy="371.1875" fill="none" rx="3" ry="3" style="stroke:#038048;stroke-width:1.0;"/><text fill="#000000" font-family="sans-serif" font-size="14" lengthAdjust="spacing" textLength="62" x="512" y="377.1826">shipDate</text><line style="stroke:#181818;stroke-width:0.5;" x1="493" x2="627" y1="384.4844" y2="384.4844"/></g><!--MD5=[d382d0be287f8b8e9c04da9f4a25cc5a]
reverse link Customer to Contact--><g id="link_Customer_Contact"><path codeLine="25" d="M160.15,158.12 C139.93,193.9 108.63,249.3 87.5,286.69 " fill="none" id="Customer-backto-Contact" style="stroke:#181818;stroke-width:1.0;"/><polygon fill="#181818" points="166.81,146.34,160.3743,149.593,160.9018,156.7848,167.3375,153.5318,166.81,146.34" style="stroke:#181818;stroke-width:1.0;"/></g><!--MD5=[d294b14594f6029ff53199fb775f8569]
reverse link Customer to ShippingAddress--><g id="link_Customer_ShippingAddress"><path codeLine="26" d="M186.76,159.22 C194.26,199.34 206.17,263.13 212.91,299.24 " fill="none" id="Customer-backto-ShippingAddress" style="stroke:#181818;stroke-width:1.0;"/><polygon fill="#181818" points="184.36,146.34,181.5284,152.9719,186.5611,158.1364,189.3927,151.5045,184.36,146.34" style="stroke:#181818;stroke-width:1.0;"/></g><!--MD5=[9d25727ae28a943b8c054c4b1ce325cd]
reverse link Customer to BillingAddress--><g id="link_Customer_BillingAddress"><path codeLine="27" d="M206.46,156.47 C218.61,171.21 233.51,188.45 248,203 C283.32,238.48 327.46,275.36 357.5,299.48 " fill="none" id="Customer-backto-BillingAddress" style="stroke:#181818;stroke-width:1.0;"/><polygon fill="#181818" points="198.14,146.25,198.8275,153.4283,205.718,155.5545,205.0305,148.3762,198.14,146.25" style="stroke:#181818;stroke-width:1.0;"/></g><!--MD5=[95e2bca0ade75d3c85c602c2fc47212b]
link Customer to SalesOrder--><g id="link_Customer_SalesOrder"><path codeLine="28" d="M200.796,155.8377 C200.796,155.8377 229.46,191.3 248,203 C335.89,258.46 380.32,218.01 474,263 C476.16,264.04 478.33,265.14 480.49,266.28 " fill="none" id="Customer-SalesOrder" style="stroke:#181818;stroke-width:1.0;"/><line style="stroke:#181818;stroke-width:1.0;" x1="485.0203" x2="491.97" y1="268.8575" y2="265.8703"/><line style="stroke:#181818;stroke-width:1.0;" x1="485.0203" x2="491.97" y1="268.8575" y2="279.7697"/><line style="stroke:#181818;stroke-width:1.0;" x1="485.0203" x2="491.97" y1="268.8575" y2="272.82"/><polygon fill="#181818" points="193.91,146.01,194.0771,153.2192,200.796,155.8377,200.6289,148.6285,193.91,146.01" style="stroke:#181818;stroke-width:1.0;"/></g><!--MD5=[534ee50db58d3304ca03958a21069e51]
@startuml
package "customer domain" #DDDDDD {
    class Contact {
        + email
        + phone
    }

    class Address {
        + address1
        + address2
        + city
        + region
        + country
        + postalCode
        + organization
    }

    note right of Address 
        There are two types of 
        addresses: billing and shipping
    end note

    class Customer {
    }

    Customer *- - Contact
    Customer *- - ShippingAddress
    Customer *- - BillingAddress
    Customer *- -{ SalesOrder

    class ShippingAddress <<Address>>
    class BillingAddress <<Address>>
    class SalesOrder {
        + itemDescription
        + itemPrice
        + shippingCost
        + trackingNumber
        + shipDate
    }
}
@enduml

PlantUML version 1.2022.5(Sat Apr 30 18:55:52 CST 2022)
(GPL source distribution)
Java Runtime: Java(TM) SE Runtime Environment
JVM: Java HotSpot(TM) 64-Bit Server VM
Default Encoding: UTF-8
Language: en
Country: US
--></g></svg>