<?xml version="1.0" encoding="UTF-8" standalone="no"?><svg xmlns="http://www.w3.org/2000/svg" xmlns:xlink="http://www.w3.org/1999/xlink" contentStyleType="text/css" height="497.9167px" preserveAspectRatio="none" style="width:607px;height:497px;background:#FFEBDC;" version="1.1" viewBox="0 0 607 497" width="607.2917px" zoomAndPan="magnify"><defs/><g><!--MD5=[04aee1d8cadfe8db85d02551925bd584]
cluster Running--><g id="cluster_Running"><path d="M243.2292,7.2917 L580.7292,7.2917 A13.0208,13.0208 0 0 1 593.75,20.3125 L593.75,34.6842 L230.2083,34.6842 L230.2083,20.3125 A13.0208,13.0208 0 0 1 243.2292,7.2917 " fill="#F1F1F1" style="stroke:#F1F1F1;stroke-width:1.0416666666666667;"/><rect height="389.5833" rx="13.0208" ry="13.0208" style="stroke:#181818;stroke-width:0.5208333333333334;fill:none;" width="363.5417" x="230.2083" y="7.2917"/><line style="stroke:#181818;stroke-width:0.5208333333333334;fill:none;" x1="230.2083" x2="593.75" y1="34.6842" y2="34.6842"/><text fill="#000000" font-family="sans-serif" font-size="14.5833" lengthAdjust="spacing" textLength="60.4167" x="381.7708" y="24.9949">Running</text></g><g id="Running.long1"><rect fill="#F1F1F1" height="54.7852" rx="13.0208" ry="13.0208" style="stroke:#181818;stroke-width:0.5208333333333334;" width="155.2083" x="275.5208" y="52.0833"/><line style="stroke:#181818;stroke-width:0.5208333333333334;" x1="275.5208" x2="430.7292" y1="79.4759" y2="79.4759"/><text fill="#000000" font-family="sans-serif" font-size="14.5833" lengthAdjust="spacing" textLength="134.375" x="285.9375" y="70.8282">The game runneth</text><text fill="#000000" font-family="sans-serif" font-size="14.5833" lengthAdjust="spacing" textLength="87.5" x="280.7292" y="98.2208">Until you die</text></g><g id="Running.keepGoing"><rect fill="#F1F1F1" height="52.0833" rx="13.0208" ry="13.0208" style="stroke:#181818;stroke-width:0.5208333333333334;" width="100" x="276.0417" y="187.5"/><line style="stroke:#181818;stroke-width:0.5208333333333334;" x1="276.0417" x2="376.0417" y1="214.8926" y2="214.8926"/><text fill="#000000" font-family="sans-serif" font-size="14.5833" lengthAdjust="spacing" textLength="79.1667" x="286.4583" y="206.2449">keepGoing</text></g><g id="Running.tooBadsoSad"><rect fill="#F1F1F1" height="52.0833" rx="13.0208" ry="13.0208" style="stroke:#181818;stroke-width:0.5208333333333334;" width="117.7083" x="413.0208" y="187.5"/><line style="stroke:#181818;stroke-width:0.5208333333333334;" x1="413.0208" x2="530.7292" y1="214.8926" y2="214.8926"/><text fill="#000000" font-family="sans-serif" font-size="14.5833" lengthAdjust="spacing" textLength="96.875" x="423.4375" y="206.2449">tooBadsoSad</text></g><g id="Running.Dead"><rect fill="#F1F1F1" height="52.0833" rx="13.0208" ry="13.0208" style="stroke:#181818;stroke-width:0.5208333333333334;" width="59.375" x="319.2708" y="319.7917"/><line style="stroke:#181818;stroke-width:0.5208333333333334;" x1="319.2708" x2="378.6458" y1="347.1842" y2="347.1842"/><text fill="#000000" font-family="sans-serif" font-size="14.5833" lengthAdjust="spacing" textLength="38.5417" x="329.6875" y="338.5366">Dead</text></g><ellipse cx="16.6667" cy="79.6875" fill="#222222" rx="10.4167" ry="10.4167" style="stroke:none;stroke-width:1.0416666666666667;"/><g id="Begin"><rect fill="#F1F1F1" height="52.0833" rx="13.0208" ry="13.0208" style="stroke:#181818;stroke-width:0.5208333333333334;" width="62.5" x="63.5417" y="53.6458"/><line style="stroke:#181818;stroke-width:0.5208333333333334;" x1="63.5417" x2="126.0417" y1="81.0384" y2="81.0384"/><text fill="#000000" font-family="sans-serif" font-size="14.5833" lengthAdjust="spacing" textLength="41.6667" x="73.9583" y="72.3907">Begin</text></g><ellipse cx="153.125" cy="481.25" fill="none" rx="10.4167" ry="10.4167" style="stroke:#222222;stroke-width:1.0416666666666667;"/><ellipse cx="153.6458" cy="481.7708" fill="#222222" rx="6.25" ry="6.25" style="stroke:none;stroke-width:1.0416666666666667;"/><!--MD5=[562403dcf6dfe50680863d4d1aa5d204]
link *start to Begin--><g id="link_*start_Begin"><path d="M27.3438,79.6875 C37.5938,79.6875 47.8333,79.6875 58.0833,79.6875 " fill="none" id="*start-to-Begin" style="stroke:#181818;stroke-width:1.0416666666666667;"/><polygon fill="#181818" points="63.4375,79.6875,54.0625,75.5208,58.2292,79.6875,54.0625,83.8542,63.4375,79.6875" style="stroke:#181818;stroke-width:1.0416666666666667;"/></g><!--MD5=[c42cd50d13b2ddfc0ebddbd19a48d025]
link Begin to Running--><g id="link_Begin_Running"><path d="M126.3333,79.6875 C146.5,79.6875 172.9297,79.6875 195.0729,79.6875 C206.1445,79.6875 216.1445,79.6875 223.7542,79.6875 C225.6567,79.6875 227.4097,79.6875 228.9927,79.6875 C229.3885,79.6875 229.7736,79.6875 230.1478,79.6875 " fill="none" id="Begin-to-Running" style="stroke:#181818;stroke-width:1.0416666666666667;"/><polygon fill="#181818" points="230.1478,79.6875,220.7728,75.5208,224.9395,79.6875,220.7728,83.8542,230.1478,79.6875" style="stroke:#181818;stroke-width:1.0416666666666667;"/><text fill="#000000" font-family="sans-serif" font-size="13.5417" lengthAdjust="spacing" textLength="73.9583" x="145.125" y="72.4655">Succeeded</text></g><!--MD5=[b88a94809d7a7fbcfd62d3147d017dfd]
link Begin to *end--><g id="link_Begin_*end"><path d="M98.4896,106.0208 C109.5729,181.9479 142.3438,406.3438 151,465.6771 " fill="none" id="Begin-to-*end" style="stroke:#181818;stroke-width:1.0416666666666667;"/><polygon fill="#181818" points="151.7604,470.8958,154.5155,461.0134,151.0009,465.7432,146.2712,462.2286,151.7604,470.8958" style="stroke:#181818;stroke-width:1.0416666666666667;"/><text fill="#000000" font-family="sans-serif" font-size="13.5417" lengthAdjust="spacing" textLength="53.125" x="126.0417" y="284.4447">Aborted</text></g><!--MD5=[cd06514976a2197e7c66cb27013135c0]
link long1 to long1--><g id="link_long1_long1"><path d="M430.9583,67.3021 C451.5729,68.0104 467.1875,72.1354 467.1875,79.6875 C467.1875,86.5313 454.3646,90.5625 436.6146,91.7917 " fill="none" id="long1-to-long1" style="stroke:#181818;stroke-width:1.0416666666666667;"/><polygon fill="#181818" points="430.9583,92.0729,440.5244,95.7799,436.1605,91.8202,440.1202,87.4563,430.9583,92.0729" style="stroke:#181818;stroke-width:1.0416666666666667;"/><text fill="#000000" font-family="sans-serif" font-size="13.5417" lengthAdjust="spacing" textLength="106.25" x="473.4375" y="84.4447">User interaction</text></g><!--MD5=[aba670c35e8be9a8af74d083b472b94b]
link long1 to keepGoing--><g id="link_long1_keepGoing"><path d="M331.3125,107.3438 C324.9688,116.6458 318.8854,127.5313 315.625,138.5417 C311.4688,152.5938 313.0104,168.6458 316.0313,182.1979 " fill="none" id="long1-to-keepGoing" style="stroke:#181818;stroke-width:1.0416666666666667;"/><polygon fill="#181818" points="317.3021,187.4583,319.1546,177.3677,316.081,182.3952,311.0535,179.3215,317.3021,187.4583" style="stroke:#181818;stroke-width:1.0416666666666667;"/><text fill="#000000" font-family="sans-serif" font-size="13.5417" lengthAdjust="spacing" textLength="53.125" x="316.6667" y="152.153">stillAlive</text></g><!--MD5=[4a843001efa5aaa2701e9b77d51d36a9]
link keepGoing to long1--><g id="link_keepGoing_long1"><path d="M354.6667,187.4063 C362.8333,178.4896 370.6875,167.7708 375,156.25 C380.2813,142.1354 376.9375,126.1354 371.4271,112.5208 " fill="none" id="keepGoing-to-long1" style="stroke:#181818;stroke-width:1.0416666666666667;"/><polygon fill="#181818" points="369.3021,107.6146,369.1769,117.873,371.3591,112.3995,376.8327,114.5818,369.3021,107.6146" style="stroke:#181818;stroke-width:1.0416666666666667;"/></g><!--MD5=[289b2fa5716ca9574ad4a19f0b80bbf3]
link long1 to tooBadsoSad--><g id="link_long1_tooBadsoSad"><path d="M377.1563,107.3958 C396.9375,129.3438 424.9375,160.4167 445.3646,183.0833 " fill="none" id="long1-to-tooBadsoSad" style="stroke:#181818;stroke-width:1.0416666666666667;"/><polygon fill="#181818" points="449.0938,187.2188,445.9193,177.463,445.6096,183.3474,439.7251,183.0377,449.0938,187.2188" style="stroke:#181818;stroke-width:1.0416666666666667;"/><text fill="#000000" font-family="sans-serif" font-size="13.5417" lengthAdjust="spacing" textLength="33.3333" x="419.7917" y="152.153">killed</text></g><!--MD5=[e66b5ddd8293554ff4405a3f95b33bff]
link tooBadsoSad to Dead--><g id="link_tooBadsoSad_Dead"><path d="M448.1771,239.6875 C427.6042,261.4896 397.8021,293.0417 376.2396,315.8854 " fill="none" id="tooBadsoSad-to-Dead" style="stroke:#181818;stroke-width:1.0416666666666667;"/><polygon fill="#181818" points="372.5833,319.7604,382.0428,315.7892,376.1529,315.9677,375.9745,310.0779,372.5833,319.7604" style="stroke:#181818;stroke-width:1.0416666666666667;"/><text fill="#000000" font-family="sans-serif" font-size="13.5417" lengthAdjust="spacing" textLength="35.4167" x="418.75" y="284.4447">failed</text></g><!--MD5=[db4c164342da1b0dccdb68ffa5b804e9]
link Dead to *end--><g id="link_Dead_*end"><path d="M319.2188,367.125 C275.75,396.7188 196.6875,450.5521 165.8854,471.5208 " fill="none" id="Dead-to-*end" style="stroke:#181818;stroke-width:1.0416666666666667;"/><polygon fill="#181818" points="161.375,474.5938,171.4726,472.7801,165.6855,471.6704,166.7952,465.8832,161.375,474.5938" style="stroke:#181818;stroke-width:1.0416666666666667;"/><text fill="#000000" font-family="sans-serif" font-size="13.5417" lengthAdjust="spacing" textLength="53.125" x="234.375" y="435.4863">Aborted</text></g><!--MD5=[bc75452ff3eee89ea113d63a8d31136a]
@startuml
scale 600 width
skinparam backgroundColor #FFEBDC
[*] -> Begin
Begin -right-> Running : Succeeded
Begin - -> [*] : Aborted
state Running {
  state "The game runneth" as long1
  long1 : Until you die
  long1 - -> long1 : User interaction
  long1 - -> keepGoing : stillAlive
  keepGoing - -> long1
  long1 - -> tooBadsoSad : killed
  tooBadsoSad - -> Dead : failed
}
Dead - -> [*] : Aborted
@enduml

PlantUML version 1.2022.5(Sat Apr 30 18:55:52 CST 2022)
(GPL source distribution)
Java Runtime: Java(TM) SE Runtime Environment
JVM: Java HotSpot(TM) 64-Bit Server VM
Default Encoding: UTF-8
Language: en
Country: US
--></g></svg>