<?xml version="1.0" encoding="UTF-8" standalone="no"?><svg xmlns="http://www.w3.org/2000/svg" xmlns:xlink="http://www.w3.org/1999/xlink" contentStyleType="text/css" height="341px" preserveAspectRatio="none" style="width:432px;height:341px;background:#EEEBDC;" version="1.1" viewBox="0 0 432 341" width="432px" zoomAndPan="magnify"><defs/><g><polygon fill="#FFFFFF" points="205,141.5625,205,141.6326,207,141.4244,209,141.6269,211,141.6957,213,141.3247,215,141.5625,214.9223,141.5625,214.5735,151.7023,214.6165,161.8422,214.9318,171.982,214.3086,182.1219,215.5536,192.2617,214.3697,202.4016,214.8022,212.5414,215.4319,222.6813,214.9142,232.8211,215,242.9609,215,242.9837,213,242.9503,211,243.0204,209,243.0406,207,243.1562,205,242.9609,205.6711,242.9609,205.6793,232.8211,205.2546,222.6813,205.4636,212.5414,205.7022,202.4016,204.2788,192.2617,205.6785,182.1219,204.7035,171.982,205.5338,161.8422,204.505,151.7023,205,141.5625" style="stroke:#181818;stroke-width:1.0;"/><path d="M42,81.2969 L42.2802,81.2969 L41.4476,91.2782 L42.2577,101.2595 L42.5329,111.2409 L41.0488,121.2222 L41.8964,131.2036 L41.4313,141.1849 L41.4887,151.1662 L41.9091,161.1476 L41.0782,171.1289 L42.7382,181.1102 L41.1596,191.0916 L41.7363,201.0729 L42.5759,211.0543 L41.8856,221.0356 L42.091,231.0169 L41.9574,240.9983 L42.238,250.9796 L42,260.9609 " fill="none" style="stroke:#181818;stroke-width:0.5;stroke-dasharray:5.0,5.0;"/><path d="M209.5,81.2969 L209.7802,81.2969 L208.9476,91.2782 L209.7577,101.2595 L210.0329,111.2409 L208.5488,121.2222 L209.3964,131.2036 L208.9313,141.1849 L208.9887,151.1662 L209.4091,161.1476 L208.5782,171.1289 L210.2382,181.1102 L208.6596,191.0916 L209.2363,201.0729 L210.0759,211.0543 L209.3856,221.0356 L209.591,231.0169 L209.4574,240.9983 L209.738,250.9796 L209.5,260.9609 " fill="none" style="stroke:#181818;stroke-width:0.5;stroke-dasharray:5.0,5.0;"/><path d="M298.5,81.2969 L298.7802,81.2969 L297.9476,91.2782 L298.7577,101.2595 L299.0329,111.2409 L297.5488,121.2222 L298.3964,131.2036 L297.9313,141.1849 L297.9887,151.1662 L298.4091,161.1476 L297.5782,171.1289 L299.2382,181.1102 L297.6596,191.0916 L298.2363,201.0729 L299.0759,211.0543 L298.3856,221.0356 L298.591,231.0169 L298.4574,240.9983 L298.738,250.9796 L298.5,260.9609 " fill="none" style="stroke:#181818;stroke-width:0.5;stroke-dasharray:5.0,5.0;"/><path d="M392.5,81.2969 L392.7802,81.2969 L391.9476,91.2782 L392.7577,101.2595 L393.0329,111.2409 L391.5488,121.2222 L392.3964,131.2036 L391.9313,141.1849 L391.9887,151.1662 L392.4091,161.1476 L391.5782,171.1289 L393.2382,181.1102 L391.6596,191.0916 L392.2363,201.0729 L393.0759,211.0543 L392.3856,221.0356 L392.591,231.0169 L392.4574,240.9983 L392.738,250.9796 L392.5,260.9609 " fill="none" style="stroke:#181818;stroke-width:0.5;stroke-dasharray:5.0,5.0;"/><text fill="#000000" font-family="sans-serif" font-size="14" lengthAdjust="spacing" textLength="68" x="5" y="77.9951">Customer</text><polygon fill="#E2E2F0" points="50.0442,15.4459,48.8715,17.0482,47.4845,19.3951,45.5008,20.9767,43.4163,21.8415,41.7542,21.9166,39.618,20.8349,37.6023,20.1283,36.0724,18.6936,35.2699,17.0511,34.7939,15.7433,34.3277,14.0351,33.5709,12.5651,34.1525,11.1298,34.662,9.5576,36.574,8.3142,37.9192,6.7008,39.5843,6.165,41.5637,5.7037,44.1021,5.9778,45.4924,6.6335,47.1089,6.9307,49.0743,8.9443,49.7595,11.0701,50.0571,12.5206,49.72,14.9108" style="stroke:#181818;stroke-width:0.5;"/><path d="M42,21.5 L42.1868,21.5 L41.6317,26.9 L42.1718,32.3 L42.3553,37.7 L41.3659,43.1 L42,48.5 M29,29.5 L29,29.4309 L34.2,29.1209 L39.4,29.1591 L44.6,29.4394 L49.8,28.8854 L55,29.5 M42,48.5 L42.3719,48.8223 L38.9766,51.1331 L36.6672,54.3849 L34.4901,57.7515 L31.5424,60.4501 L29,63.5 M42,48.5 L42.0458,48.5397 L44.5785,51.4814 L47.3199,54.6039 L49.9606,57.6392 L52.7934,60.841 L55,63.5 " fill="none" style="stroke:#181818;stroke-width:0.5;"/><text fill="#000000" font-family="sans-serif" font-size="14" lengthAdjust="spacing" textLength="68" x="5" y="272.9561">Customer</text><polygon fill="#E2E2F0" points="50.0442,286.7037,48.8715,288.306,47.4845,290.6529,45.5008,292.2345,43.4163,293.0993,41.7542,293.1744,39.618,292.0928,37.6023,291.3861,36.0724,289.9514,35.2699,288.3089,34.7939,287.0011,34.3277,285.2929,33.5709,283.8229,34.1525,282.3876,34.662,280.8154,36.574,279.572,37.9192,277.9586,39.5843,277.4229,41.5637,276.9615,44.1021,277.2356,45.4924,277.8913,47.1089,278.1885,49.0743,280.2022,49.7595,282.328,50.0571,283.7784,49.72,286.1686" style="stroke:#181818;stroke-width:0.5;"/><path d="M42,292.7578 L42.1868,292.7578 L41.6317,298.1578 L42.1718,303.5578 L42.3553,308.9578 L41.3659,314.3578 L42,319.7578 M29,300.7578 L29,300.6887 L34.2,300.3787 L39.4,300.4169 L44.6,300.6972 L49.8,300.1433 L55,300.7578 M42,319.7578 L42.3719,320.0801 L38.9766,322.3909 L36.6672,325.6427 L34.4901,329.0093 L31.5424,331.7079 L29,334.7578 M42,319.7578 L42.0458,319.7975 L44.5785,322.7392 L47.3199,325.8617 L49.9606,328.897 L52.7934,332.0988 L55,334.7578 " fill="none" style="stroke:#181818;stroke-width:0.5;"/><polygon fill="#E2E2F0" points="184,50,184,50.2102,194.4,49.5857,204.8,50.1933,215.2,50.3997,225.6,49.2866,236,50,235.9901,49.9761,236.2991,50.0151,236.6582,50.1748,237.052,50.4184,237.326,50.3729,237.7678,50.7322,237.9383,50.8029,237.7201,51.0054,237.9998,51.4141,238.3401,51.848,238.3271,52.1355,238.5,52.5,238.5227,52.5,238.4894,57.5594,238.5595,62.6188,238.5797,67.6781,238.6952,72.7375,238.5,77.7969,238.7067,77.8825,238.5627,78.2371,238.2855,78.5365,238.2034,78.9167,238.1305,79.3007,237.7678,79.5646,237.6758,79.3425,237.5008,79.92,237.0228,79.7662,236.7752,80.1684,236.2904,79.998,236,80.2969,236,80.2284,225.6,81.0385,215.2,80.2481,204.8,80.4022,194.4,80.6355,184,80.2969,184.0531,80.4251,183.6459,80.1492,183.3295,80.0924,182.8663,79.6813,182.6221,79.7987,182.2322,79.5646,182.4011,79.6346,182.2227,79.2678,182.1281,78.9357,181.6441,78.4424,181.4456,78.0672,181.5,77.7969,181.2929,77.7969,181.4804,72.7375,181.4345,67.6781,181.7271,62.6188,181.4418,57.5594,181.5,52.5,181.3944,52.4562,181.7167,52.1756,181.5875,51.7078,181.7795,51.3731,182.2856,51.1686,182.2322,50.7322,182.2878,50.8664,182.6795,50.812,182.8983,50.3402,183.3336,50.3912,183.7218,50.3283,184,50" style="stroke:#181818;stroke-width:0.5;"/><text fill="#000000" font-family="sans-serif" font-size="14" lengthAdjust="spacing" textLength="43" x="188.5" y="69.9951">login()</text><polygon fill="#E2E2F0" points="184,259.9609,184,260.1711,194.4,259.5466,204.8,260.1542,215.2,260.3606,225.6,259.2475,236,259.9609,235.9901,259.937,236.2991,259.976,236.6582,260.1357,237.052,260.3793,237.326,260.3338,237.7678,260.6932,237.9383,260.7638,237.7201,260.9663,237.9998,261.375,238.3401,261.8089,238.3271,262.0964,238.5,262.4609,238.5227,262.4609,238.4894,267.5203,238.5595,272.5797,238.5797,277.6391,238.6952,282.6984,238.5,287.7578,238.7067,287.8434,238.5627,288.198,238.2855,288.4974,238.2034,288.8776,238.1305,289.2616,237.7678,289.5256,237.6758,289.3035,237.5008,289.881,237.0228,289.7272,236.7752,290.1293,236.2904,289.9589,236,290.2578,236,290.1893,225.6,290.9994,215.2,290.2091,204.8,290.3631,194.4,290.5964,184,290.2578,184.0531,290.386,183.6459,290.1102,183.3295,290.0534,182.8663,289.6422,182.6221,289.7596,182.2322,289.5256,182.4011,289.5955,182.2227,289.2287,182.1281,288.8967,181.6441,288.4033,181.4456,288.0282,181.5,287.7578,181.2929,287.7578,181.4804,282.6984,181.4345,277.6391,181.7271,272.5797,181.4418,267.5203,181.5,262.4609,181.3944,262.4172,181.7167,262.1365,181.5875,261.6688,181.7795,261.3341,182.2856,261.1295,182.2322,260.6932,182.2878,260.8273,182.6795,260.7729,182.8983,260.3012,183.3336,260.3521,183.7218,260.2892,184,259.9609" style="stroke:#181818;stroke-width:0.5;"/><text fill="#000000" font-family="sans-serif" font-size="14" lengthAdjust="spacing" textLength="43" x="188.5" y="279.9561">login()</text><polygon fill="#E2E2F0" points="251,50,251,50.2102,260.5,49.5857,270,50.1933,279.5,50.3997,289,49.2866,298.5,49.9223,308,49.5735,317.5,49.6165,327,49.9318,336.5,49.3086,346,50,346.0706,50.1705,346.2732,49.9523,346.6819,50.232,347.1158,50.5724,347.4033,50.5594,347.7678,50.7322,347.7888,50.7409,347.9044,51.0817,348.1156,51.4621,348.2808,51.8234,348.5339,52.2212,348.5,52.5,348.7237,52.5,348.7264,57.5594,348.5849,62.6188,348.6545,67.6781,348.7341,72.7375,348.5,77.7969,348.2779,77.7049,348.5625,78.237,348.1158,78.4662,348.2251,78.9256,347.7618,79.1479,347.7678,79.5646,347.759,79.5435,347.5088,79.9395,347.0544,79.8425,346.7205,80.0364,346.3967,80.2547,346,80.2969,346,80.7131,336.5,80.293,327,80.5841,317.5,79.7245,308,80.5813,298.5,80.8451,289,80.7414,279.5,80.9099,270,79.8138,260.5,79.6447,251,80.2969,250.9207,80.1055,250.6389,80.1323,250.2678,79.9435,250.0263,80.0674,249.5635,79.6573,249.2322,79.5646,249.1266,79.5209,249.1561,79.2402,248.734,78.7725,248.633,78.4378,248.8463,78.2332,248.5,77.7969,248.6452,77.7969,248.7448,72.7375,248.3927,67.6781,248.6064,62.6188,248.6968,57.5594,248.5,52.5,248.3545,52.4397,248.6169,52.1342,248.8317,51.809,249.1401,51.5225,249.0845,51.0853,249.2322,50.7322,249.2912,50.8747,249.5151,50.4152,249.8529,50.2308,250.3571,50.448,250.555,49.9257,251,50" style="stroke:#181818;stroke-width:0.5;"/><text fill="#000000" font-family="sans-serif" font-size="14" lengthAdjust="spacing" textLength="86" x="255.5" y="69.9951">placeOrder()</text><polygon fill="#E2E2F0" points="251,259.9609,251,260.1711,260.5,259.5466,270,260.1542,279.5,260.3606,289,259.2475,298.5,259.8832,308,259.5344,317.5,259.5774,327,259.8928,336.5,259.2696,346,259.9609,346.0706,260.1314,346.2732,259.9133,346.6819,260.1929,347.1158,260.5333,347.4033,260.5203,347.7678,260.6932,347.7888,260.7019,347.9044,261.0426,348.1156,261.4231,348.2808,261.7843,348.5339,262.1821,348.5,262.4609,348.7237,262.4609,348.7264,267.5203,348.5849,272.5797,348.6545,277.6391,348.7341,282.6984,348.5,287.7578,348.2779,287.6658,348.5625,288.1979,348.1158,288.4271,348.2251,288.8866,347.7618,289.1089,347.7678,289.5256,347.759,289.5045,347.5088,289.9004,347.0544,289.8035,346.7205,289.9973,346.3967,290.2156,346,290.2578,346,290.674,336.5,290.2539,327,290.545,317.5,289.6854,308,290.5422,298.5,290.806,289,290.7023,279.5,290.8708,270,289.7747,260.5,289.6056,251,290.2578,250.9207,290.0664,250.6389,290.0932,250.2678,289.9044,250.0263,290.0283,249.5635,289.6182,249.2322,289.5256,249.1266,289.4818,249.1561,289.2011,248.734,288.7334,248.633,288.3987,248.8463,288.1941,248.5,287.7578,248.6452,287.7578,248.7448,282.6984,248.3927,277.6391,248.6064,272.5797,248.6968,267.5203,248.5,262.4609,248.3545,262.4007,248.6169,262.0952,248.8317,261.7699,249.1401,261.4834,249.0845,261.0462,249.2322,260.6932,249.2912,260.8356,249.5151,260.3762,249.8529,260.1917,250.3571,260.4089,250.555,259.8866,251,259.9609" style="stroke:#181818;stroke-width:0.5;"/><text fill="#000000" font-family="sans-serif" font-size="14" lengthAdjust="spacing" textLength="86" x="255.5" y="279.9561">placeOrder()</text><polygon fill="#E2E2F0" points="361,50,361,50.2102,371.5,49.5857,382,50.1933,392.5,50.3997,403,49.2866,413.5,49.9223,424,50,423.9456,49.8687,424.3046,50.0283,424.6984,50.2719,424.9725,50.2264,425.4848,50.7563,425.7678,50.7322,425.5737,50.6518,425.8533,51.0606,426.1937,51.4944,426.1807,51.782,426.3746,52.1552,426.5,52.5,426.4894,52.5,426.5595,57.5594,426.5797,62.6188,426.6952,67.6781,426.7237,72.7375,426.5,77.7969,426.7092,77.8835,426.432,78.1829,426.3499,78.5631,426.2769,78.9471,425.6921,79.1191,425.7678,79.5646,425.8543,79.7736,425.3764,79.6198,425.1288,80.0219,424.644,79.8515,424.3448,80.1293,424,80.2969,424,81.0385,413.5,80.2481,403,80.4022,392.5,80.6355,382,80.7131,371.5,80.293,361,80.2969,361.0366,80.3853,360.5734,79.9741,360.3292,80.0916,360.0093,80.0264,359.6425,79.848,359.2322,79.5646,359.421,79.6428,358.937,79.1495,358.7385,78.7743,358.6015,78.4247,358.6283,78.1429,358.5,77.7969,358.4345,77.7969,358.7271,72.7375,358.4418,67.6781,358.3856,62.6188,358.5761,57.5594,358.5,52.5,358.2946,52.4149,358.4866,52.0802,358.9927,51.8757,359.0735,51.4949,359.312,51.1795,359.2322,50.7322,359.1912,50.6331,359.6265,50.6841,360.0147,50.6212,360.2326,50.1474,360.6342,50.1169,361,50" style="stroke:#181818;stroke-width:0.5;"/><text fill="#000000" font-family="sans-serif" font-size="14" lengthAdjust="spacing" textLength="54" x="365.5" y="69.9951">logout()</text><polygon fill="#E2E2F0" points="361,259.9609,361,260.1711,371.5,259.5466,382,260.1542,392.5,260.3606,403,259.2475,413.5,259.8832,424,259.9609,423.9456,259.8296,424.3046,259.9893,424.6984,260.2328,424.9725,260.1874,425.4848,260.7172,425.7678,260.6932,425.5737,260.6128,425.8533,261.0215,426.1937,261.4554,426.1807,261.7429,426.3746,262.1161,426.5,262.4609,426.4894,262.4609,426.5595,267.5203,426.5797,272.5797,426.6952,277.6391,426.7237,282.6984,426.5,287.7578,426.7092,287.8445,426.432,288.1438,426.3499,288.5241,426.2769,288.9081,425.6921,289.08,425.7678,289.5256,425.8543,289.7345,425.3764,289.5807,425.1288,289.9829,424.644,289.8125,424.3448,290.0903,424,290.2578,424,290.9994,413.5,290.2091,403,290.3631,392.5,290.5964,382,290.674,371.5,290.2539,361,290.2578,361.0366,290.3463,360.5734,289.9351,360.3292,290.0525,360.0093,289.9873,359.6425,289.8089,359.2322,289.5256,359.421,289.6038,358.937,289.1104,358.7385,288.7353,358.6015,288.3857,358.6283,288.1039,358.5,287.7578,358.4345,287.7578,358.7271,282.6984,358.4418,277.6391,358.3856,272.5797,358.5761,267.5203,358.5,262.4609,358.2946,262.3759,358.4866,262.0412,358.9927,261.8366,359.0735,261.4559,359.312,261.1404,359.2322,260.6932,359.1912,260.5941,359.6265,260.645,360.0147,260.5821,360.2326,260.1083,360.6342,260.0779,361,259.9609" style="stroke:#181818;stroke-width:0.5;"/><text fill="#000000" font-family="sans-serif" font-size="14" lengthAdjust="spacing" textLength="54" x="365.5" y="279.9561">logout()</text><polygon fill="#FFFFFF" points="205,141.5625,205,141.6326,207,141.4244,209,141.6269,211,141.6957,213,141.3247,215,141.5625,214.9223,141.5625,214.5735,151.7023,214.6165,161.8422,214.9318,171.982,214.3086,182.1219,215.5536,192.2617,214.3697,202.4016,214.8022,212.5414,215.4319,222.6813,214.9142,232.8211,215,242.9609,215,242.9837,213,242.9503,211,243.0204,209,243.0406,207,243.1562,205,242.9609,205.6711,242.9609,205.6793,232.8211,205.2546,222.6813,205.4636,212.5414,205.7022,202.4016,204.2788,192.2617,205.6785,182.1219,204.7035,171.982,205.5338,161.8422,204.505,151.7023,205,141.5625" style="stroke:#181818;stroke-width:1.0;"/><polygon fill="#181818" points="198,108.4297,198.026,108.4947,199.9487,109.1015,202.0239,110.0895,204.0495,110.9534,205.9117,111.4089,208,112.4297,207.9904,112.4056,205.9472,113.0977,203.9525,113.911,201.9916,114.8086,199.9144,115.4157,198,116.4297,198.1305,116.5602,198.6514,115.4811,199.5534,114.7831,200.5018,114.1315,201.1798,113.2095,202,112.4297,202.0161,112.4458,201.1925,111.6222,200.4421,110.8718,199.6564,110.0861,198.938,109.3677,198,108.4297" style="stroke:#181818;stroke-width:1.0;"/><path d="M42,112.4297 L42,112.7099 L52.125,111.8773 L62.25,112.6874 L72.375,112.9626 L82.5,111.4785 L92.625,112.3261 L102.75,111.861 L112.875,111.9184 L123,112.3388 L133.125,111.5079 L143.25,113.1679 L153.375,111.5893 L163.5,112.166 L173.625,113.0056 L183.75,112.3153 L193.875,112.5207 L204,112.4297 " fill="none" style="stroke:#181818;stroke-width:1.0;"/><text fill="#000000" font-family="sans-serif" font-size="13" lengthAdjust="spacing" textLength="144" x="49" y="107.3638">username &amp; password</text><polygon fill="#181818" points="53,137.5625,53.026,137.6275,50.9487,138.2343,49.0239,139.2223,47.0495,140.0862,44.9117,140.5417,43,141.5625,42.9904,141.5384,44.9472,142.2305,46.9525,143.0438,48.9916,143.9414,50.9144,144.5485,53,145.5625,53.1305,145.693,52.0514,144.6139,51.3534,143.9159,50.7018,143.2643,49.7798,142.3423,49,141.5625,49.0161,141.5786,49.7925,140.755,50.6421,140.0046,51.4564,139.2189,52.338,138.5005,53,137.5625" style="stroke:#181818;stroke-width:1.0;"/><path d="M47,141.5625 L47,141.8427 L56.8125,141.0101 L66.625,141.8202 L76.4375,142.0954 L86.25,140.6113 L96.0625,141.4589 L105.875,140.9938 L115.6875,141.0512 L125.5,141.4716 L135.3125,140.6407 L145.125,142.3007 L154.9375,140.7221 L164.75,141.2988 L174.5625,142.1384 L184.375,141.4481 L194.1875,141.6535 L204,141.5625 " fill="none" style="stroke:#181818;stroke-width:1.0;"/><text fill="#000000" font-family="sans-serif" font-size="13" lengthAdjust="spacing" textLength="88" x="59" y="136.4966">session token</text><polygon fill="#181818" points="286.5,166.6953,286.526,166.7604,288.4487,167.3671,290.5239,168.3551,292.5495,169.219,294.4117,169.6745,296.5,170.6953,296.4904,170.6713,294.4472,171.3633,292.4525,172.1766,290.4916,173.0742,288.4144,173.6813,286.5,174.6953,286.6305,174.8258,287.1514,173.7468,288.0534,173.0487,289.0018,172.3971,289.6798,171.4751,290.5,170.6953,290.5161,170.7114,289.6925,169.8878,288.9421,169.1374,288.1564,168.3517,287.438,167.6334,286.5,166.6953" style="stroke:#181818;stroke-width:1.0;"/><path d="M42,170.6953 L42,170.9756 L52.02,170.1429 L62.04,170.953 L72.06,171.2282 L82.08,169.7441 L92.1,170.5917 L102.12,170.1267 L112.14,170.184 L122.16,170.6044 L132.18,169.7735 L142.2,171.4335 L152.22,169.8549 L162.24,170.4316 L172.26,171.2712 L182.28,170.5809 L192.3,170.7863 L202.32,170.6527 L212.34,170.9333 L222.36,171.0142 L232.38,171.4762 L242.4,171.5901 L252.42,171.601 L262.44,171.0348 L272.46,171.3134 L282.48,171.6316 L292.5,170.6953 " fill="none" style="stroke:#181818;stroke-width:1.0;"/><text fill="#000000" font-family="sans-serif" font-size="13" lengthAdjust="spacing" textLength="157" x="49" y="165.6294">session token, order info</text><polygon fill="#181818" points="53,195.8281,53.026,195.8932,50.9487,196.4999,49.0239,197.4879,47.0495,198.3518,44.9117,198.8073,43,199.8281,42.9904,199.8041,44.9472,200.4961,46.9525,201.3094,48.9916,202.207,50.9144,202.8142,53,203.8281,53.1305,203.9586,52.0514,202.8796,51.3534,202.1815,50.7018,201.5299,49.7798,200.6079,49,199.8281,49.0161,199.8442,49.7925,199.0206,50.6421,198.2702,51.4564,197.4845,52.338,196.7662,53,195.8281" style="stroke:#181818;stroke-width:1.0;"/><path d="M47,199.8281 L47,200.1084 L57.02,199.2757 L67.04,200.0858 L77.06,200.361 L87.08,198.8769 L97.1,199.7245 L107.12,199.2595 L117.14,199.3168 L127.16,199.7372 L137.18,198.9063 L147.2,200.5663 L157.22,198.9878 L167.24,199.5644 L177.26,200.4041 L187.28,199.7138 L197.3,199.9191 L207.32,199.7855 L217.34,200.0662 L227.36,200.147 L237.38,200.609 L247.4,200.7229 L257.42,200.7338 L267.44,200.1676 L277.46,200.4462 L287.48,200.7644 L297.5,199.8281 " fill="none" style="stroke:#181818;stroke-width:1.0;"/><text fill="#000000" font-family="sans-serif" font-size="13" lengthAdjust="spacing" textLength="15" x="59" y="194.7622">ok</text><polygon fill="#181818" points="380.5,209.8281,380.526,209.8932,382.4487,210.4999,384.5239,211.4879,386.5495,212.3518,388.4117,212.8073,390.5,213.8281,390.4904,213.8041,388.4472,214.4961,386.4525,215.3094,384.4916,216.207,382.4144,216.8142,380.5,217.8281,380.6305,217.9586,381.1514,216.8796,382.0534,216.1815,383.0018,215.5299,383.6798,214.6079,384.5,213.8281,384.5161,213.8442,383.6925,213.0206,382.9421,212.2702,382.1564,211.4845,381.438,210.7662,380.5,209.8281" style="stroke:#181818;stroke-width:1.0;"/><path d="M42,213.8281 L42,214.1084 L52.1324,213.2757 L62.2647,214.0858 L72.3971,214.361 L82.5294,212.8769 L92.6618,213.7245 L102.7941,213.2595 L112.9265,213.3168 L123.0588,213.7372 L133.1912,212.9063 L143.3235,214.5663 L153.4559,212.9878 L163.5882,213.5644 L173.7206,214.4041 L183.8529,213.7138 L193.9853,213.9191 L204.1176,213.7855 L214.25,214.0662 L224.3824,214.147 L234.5147,214.609 L244.6471,214.7229 L254.7794,214.7338 L264.9118,214.1676 L275.0441,214.4462 L285.1765,214.7644 L295.3088,212.8665 L305.4412,214.7328 L315.5735,213.4328 L325.7059,214.5399 L335.8382,213.1681 L345.9706,213.7368 L356.1029,214.8169 L366.2353,213.7631 L376.3676,213.9685 L386.5,213.8281 " fill="none" style="stroke:#181818;stroke-width:1.0;"/><polygon fill="#181818" points="53,238.9609,53.026,239.026,50.9487,239.6327,49.0239,240.6208,47.0495,241.4846,44.9117,241.9401,43,242.9609,42.9904,242.9369,44.9472,243.6289,46.9525,244.4422,48.9916,245.3398,50.9144,245.947,53,246.9609,53.1305,247.0914,52.0514,246.0124,51.3534,245.3143,50.7018,244.6627,49.7798,243.7407,49,242.9609,49.0161,242.977,49.7925,242.1534,50.6421,241.403,51.4564,240.6173,52.338,239.899,53,238.9609" style="stroke:#181818;stroke-width:1.0;"/><path d="M47,242.9609 L47,243.2412 L57.1324,242.4085 L67.2647,243.2187 L77.3971,243.4938 L87.5294,242.0097 L97.6618,242.8573 L107.7941,242.3923 L117.9265,242.4496 L128.0588,242.8701 L138.1912,242.0391 L148.3235,243.6991 L158.4559,242.1206 L168.5882,242.6972 L178.7206,243.5369 L188.8529,242.8466 L198.9853,243.0519 L209.1176,242.9183 L219.25,243.199 L229.3824,243.2798 L239.5147,243.7419 L249.6471,243.8557 L259.7794,243.8666 L269.9118,243.3004 L280.0441,243.5791 L290.1765,243.8972 L300.3088,241.9994 L310.4412,243.8656 L320.5735,242.5656 L330.7059,243.6727 L340.8382,242.3009 L350.9706,242.8696 L361.1029,243.9497 L371.2353,242.896 L381.3676,243.1013 L391.5,242.9609 " fill="none" style="stroke:#181818;stroke-width:1.0;"/><text fill="#000000" font-family="sans-serif" font-size="13" lengthAdjust="spacing" textLength="15" x="59" y="237.895">ok</text><!--MD5=[87f34cb9f1819d81c9c3238d73e9b774]
@startuml
    skinparam backgroundColor #EEEBDC
    skinparam handwritten true
    actor Customer
    Customer -> "login()" : username & password
    "login()" -> Customer : session token
    activate "login()"
    Customer -> "placeOrder()" : session token, order info
    "placeOrder()" -> Customer : ok
    Customer -> "logout()"
    "logout()" -> Customer : ok
    deactivate "login()"
@enduml

PlantUML version 1.2022.5(Sat Apr 30 18:55:52 CST 2022)
(GPL source distribution)
Java Runtime: Java(TM) SE Runtime Environment
JVM: Java HotSpot(TM) 64-Bit Server VM
Default Encoding: UTF-8
Language: en
Country: US
--></g></svg>